<svg xmlns="http://www.w3.org/2000/svg" viewBox="0 0 512 512">
  <defs/>
  <path d="M495.304 0H16.696C7.475 0 0 7.475 0 16.696v478.609C0 504.525 7.475 512 16.696 512h478.609c9.22 0 16.696-7.475 16.696-16.696V16.696C512 7.475 504.525 0 495.304 0zm-16.695 478.609H33.391V33.391h445.217v445.218z"/>
  <path d="M166.652 411.826H122.13c-3.069 0-5.565-2.497-5.565-5.565v-116.87c0-4.429-1.759-8.675-4.891-11.805L90.089 256l21.586-21.586c3.131-3.13 4.89-7.376 4.89-11.805v-116.87c0-3.069 2.497-5.565 5.565-5.565h44.522c9.22 0 16.696-7.475 16.696-16.696s-7.475-16.696-16.696-16.696H122.13c-21.481 0-38.956 17.476-38.956 38.957v109.954l-28.501 28.501c-6.52 6.519-6.52 17.091 0 23.611l28.501 28.502v109.954c0 21.481 17.476 38.957 38.956 38.957h44.522c9.22 0 16.696-7.475 16.696-16.696s-7.475-16.696-16.696-16.696zM459.327 244.195l-28.501-28.502V105.739c0-21.481-17.476-38.957-38.957-38.957h-44.522c-9.22 0-16.696 7.475-16.696 16.696s7.475 16.696 16.696 16.696h44.522c3.069 0 5.565 2.497 5.565 5.565v116.87c0 4.429 1.759 8.675 4.891 11.805L423.911 256l-21.586 21.586a16.6908 16.6908 0 00-4.89 11.805v116.87c0 3.069-2.497 5.565-5.565 5.565h-44.522c-9.22 0-16.696 7.475-16.696 16.696s7.475 16.696 16.696 16.696h44.522c21.481 0 38.957-17.476 38.957-38.957V296.307l28.501-28.501c6.519-6.519 6.519-17.091-.001-23.611z"/>
  <path d="M315.599 144.049h-10.53c-14.3639-.0022-27.8434 4.9372-38.5128 13.356-5.3395 4.21-9.9936 9.2947-13.7344 15.0805-3.7407 5.7843-6.5665 12.2749-8.2413 19.2527L213.1282 322.79c-1.011 4.2101-2.7007 8.0827-4.941 11.5485-3.3592 5.1972-7.9701 9.4729-13.3514 12.4388-5.3857 2.9652-11.5104 4.6243-18.0018 4.6258h-10.53c-6.8705 0-12.441 5.5705-12.441 12.441 0 6.8705 5.5705 12.441 12.441 12.441h10.53c14.364.0022 27.8435-4.9372 38.5128-13.3559 5.3396-4.21 9.9937-9.294 13.7344-15.0806 3.7407-5.7843 6.5666-12.2748 8.2414-19.2527l31.4522-131.0518c1.011-4.2101 2.7007-8.0827 4.941-11.5485 3.3593-5.1972 7.9702-9.4729 13.3514-12.4388 5.3857-2.9651 11.5105-4.6258 18.0018-4.6258h10.53c6.8706 0 12.441-5.5704 12.441-12.441 0-6.8705-5.5697-12.441-12.441-12.441z"/>
  <path d="M315.803 296.555c9.341 0 17.113 3.573 23.318 10.721 6.213 7.148 9.32 15.859 9.32 26.133v24.658c0 2.144-.069 3.756-.207 4.837-.138 1.072-.536 2.262-1.194 3.569-1.307 2.519-4.95 3.777-10.928 3.777-6.636 0-10.465-1.726-11.489-5.178-.56-1.592-.84-3.975-.84-7.151v-24.659c0-3.825-1.097-6.814-3.29-8.966-2.193-2.144-5.137-3.217-8.832-3.217-3.688 0-6.677 1.121-8.967 3.363-2.282 2.242-3.424 5.181-3.424 8.82v24.805c0 2.144-.073 3.756-.219 4.837-.138 1.072-.581 2.262-1.328 3.569-1.218 2.519-4.812 3.777-10.782 3.777-5.888 0-9.487-1.258-10.794-3.777-.649-1.404-1.048-2.643-1.194-3.715-.138-1.073-.207-2.684-.207-4.837v-49.597c0-2.055.069-3.619.207-4.691.146-1.072.593-2.262 1.34-3.569 1.307-2.339 4.901-3.509 10.782-3.509 5.693 0 9.198 1.076 10.514 3.229.935 1.583 1.401 3.496 1.401 5.738.374-.65 1.215-1.584 2.522-2.802 1.307-1.21 2.567-2.19 3.777-2.936 3.176-2.153 6.68-3.229 10.514-3.229z" style="white-space:pre"/>
</svg>
